<svg version="1.2" xmlns="http://www.w3.org/2000/svg" viewBox="0 0 1000 1000" width="1000" height="1000">
	<title>favicon</title>
	<style>
		.s0 { fill: #020202 } 
		.s1 { fill: #fafafa } 
		.s2 { fill: #f9f9f9 } 
	</style>
	<path fill-rule="evenodd" class="s0" d="m0 0h1000v1000h-1000z"/>
	<path class="s1" d="m630.3 41c22.7 7.6 43.2 14.9 64.2 25.6 2.7 1.3 5.3 2.6 8 4 101.1 52.3 175.9 133.6 212.5 241.8 42 133.3 36.4 279.2-24.8 405.1-1.9 4-3.8 7.9-5.8 12-14.8 29.3-34.9 54.3-55.4 79.7-1.9 2.5-3.7 5-5.7 7.6-72.8 93.9-204.4 126.6-315.3 141.4-85.8 0-171.5 0-259.9 0 0-171.5 0-343 0-519.7 29 0 58 0 87.9 0 0 145 0 290 0 439.5 114-0.6 114-0.6 225.5-15.3 5.8-1.2 5.8-1.2 11.7-2.5 10.3-2.5 20.2-5.6 30.3-9 4.8-1.5 9.5-3.1 14.4-4.7 52.2-18 95.3-44 134.7-83.2 2.6-2.5 5.2-4.9 7.9-7.5 25.8-26.4 41.2-59 57-91.8 1.7-3.4 3.4-6.8 5.1-10.3 4.1-9.2 7.2-18.3 10.2-28 1.4-4.3 2.9-8.7 4.3-13.3 31.6-110.1 13.4-237-38.2-337.6-39.1-68.4-99.3-108.8-168.6-142.1 0-30.2 0-60.5 0-91.7z"/>
	<path class="s2" d="m57 175.6c52.3-0.2 104.7-0.3 158.6-0.5 16.4-0.1 32.8-0.1 49.7-0.2 20.4 0 20.4 0 29.9 0q9.9-0.1 19.7-0.1c115.8-0.7 229.8 17.3 319.2 96.3 3.7 3 7.5 6 11.3 9 11.9 9.9 21.5 21.2 30.7 33.5 1.7 2.2 3.3 4.4 5 6.7 39.2 52.8 60.9 111.8 60.2 177.8 0 10.8-0.1 21.7-0.2 32.9-29 0-58 0-87.9 0-0.3-10.3-0.6-20.6-0.9-31.3-3.1-63.3-25.2-122.2-72.2-166.3-36.8-29.3-79.8-48.4-124.9-60.8-2.9-0.9-5.7-1.7-8.6-2.5-92.2-25.8-225.5-13-301.7-14.3 0 170.3 0 340.6 0 516-29 0-58 0-87.9 0 0-196.8 0-393.5 0-596.2z"/>
</svg>